<svg viewBox="0 0 179 40" xmlns="http://www.w3.org/2000/svg"><g id="desktop-wide" fill="none" fill-rule="evenodd"><g id="ns_home_wide" transform="translate(-97 -41)"><g id="Group-4" transform="translate(-66 -322)"><g id="nav" transform="translate(163 363)"><g id="logo_barwne_poziom_RGB"><g id="logo_barwne_poziom_RGB-copy" fill-rule="nonzero"><path d="M64.879 14.697h-7.152a.653.653 0 0 0-.666.667v10.818s.03.242.272.242h2c.273 0 .273-.272.273-.272v-8.97h5.121c2.637 0 4.485 2.182 4.485 4.485v4.485c0 .151.121.272.273.272h1.97c.272 0 .272-.242.272-.242v-4.697c-.06-3.303-2.666-6.788-6.848-6.788m63.363 6.121v.576c0 1.303-1.06 2.515-2.515 2.515h-5.212c-1.485 0-2.515-1.212-2.515-2.515v-1.667c0-1.303 1.06-2.515 2.515-2.515h5.212c1.485 0 2.515 1.212 2.515 2.515v1.091zm-2.515-6.121h-5.272c-3.182 0-5 2.727-5 4.91v1.908c0 2.182 1.818 4.91 5 4.91h5.272c3.182 0 5-2.728 5-4.91v-1.909c0-2.182-1.818-4.909-5-4.909zm-21.454 0h-2c-.273 0-.243.242-.243.242v6.455c0 1.485-1.212 2.515-2.515 2.515H94.94c-1.303 0-2.515-1.06-2.515-2.515v-6.455s0-.242-.242-.242h-2c-.243 0-.273.242-.273.242v6.485c0 3.182 2.727 5 4.91 5h4.785c2.182 0 4.91-1.818 4.91-5V14.94c.03 0 0-.242-.243-.242m-25.727 2.484h4.546a2.52 2.52 0 0 1 2.515 2.333H76.03c.091-1.242 1.091-2.333 2.515-2.333m4.546-2.485h-4.606c-3.182 0-5 2.727-5 4.91v1.908c0 2.182 1.818 4.91 5 4.91h7.909c.606 0 1.09-.516 1.09-1.092v-1.181s-.06-.243-.272-.243h-8.697c-1.394 0-2.394-1.09-2.515-2.303h11.364c.394 0 .727-.333.727-.758v-1.242c0-2.182-1.818-4.909-5-4.909m60.969 4.606h-7.908c-.667 0-1-.576-1-1v-.09c0-.546.454-1 1-1h10.03c.273 0 .273-.274.273-.274v-1.697c0-.242-.213-.545-.546-.545h-10.09c-2.213 0-3.274 1.879-3.274 3.242v.697c.03 1.606 1.364 3.182 3.273 3.182h7.667c.485 0 .757.455.757.758v.576c0 .363-.303.757-.757.757h-10.697c-.273 0-.273.273-.273.273v1.697c0 .242.212.545.546.545h11.09c1.364 0 2.546-1.182 2.546-2.636v-1.879c.06-1.303-1-2.606-2.636-2.606m31.757 0h-7.909c-.667 0-1-.576-1-1v-.09c0-.546.455-1 1-1h10.03c.273 0 .273-.274.273-.274v-1.697c0-.242-.212-.545-.545-.545h-10.091c-2.182 0-3.273 1.879-3.273 3.242v.697c.03 1.606 1.364 3.182 3.273 3.182h7.697c.515 0 .757.455.757.758v.576c0 .363-.303.757-.757.757h-10.697c-.273 0-.273.273-.273.273v1.697c0 .242.212.545.545.545h11.091c1.364 0 2.546-1.182 2.546-2.636v-1.879c.03-1.303-1.03-2.606-2.667-2.606m-62.424-4.606h-2.03c-3.182 0-5 2.424-5 4.606v6.879s0 .242.272.242h1.697c.546 0 .546-.545.546-.545v-6.546c0-1.03.879-2.151 2.303-2.151h2.212a.27.27 0 0 0 .273-.273v-1.97s0-.242-.273-.242m49.546 0h-1.728c-.151 0-.242.121-.242.121l-3.243 8.576c-.212.545-.697.515-.697.515h-2.06c-.546 0-.758-.636-.758-.636l-3.818-8.303s-.152-.334-.485-.334h-2.03c-.182 0-.334.182-.243.394l4.182 9.091c.91 1.97 2.273 2.273 3.091 2.273h1.636l-1.515 3.97c-.09.181.091.363.243.363h1.788c.424 0 .636-.272.727-.545l.515-1.394 5.09-13.424c.183-.273-.06-.667-.454-.667" id="Shape" fill="#000"/><path d="M21.636 6.394l.94-.788V.303h-2.182c-.546 0-1.242.152-1.879.697-.606.545-17.303 17.303-17.303 17.303l-1 .879c-.333.273-.121.848.333.848h6.94c1.151 0 1.94-.757 1.94-.757l12.211-12.88zm6.152 27.242l-1.455 1.273v3.576l1.455 1.273h1.242c.546 0 1.243-.152 1.88-.697.605-.546 15.575-15.546 15.575-15.546.09-.09.363-.394.424-.757l-4.667-2.728c-1.151 0-1.939.758-1.939.758L27.788 33.636z" id="Shape" fill="#41B6E6"/><path d="M27.788 38.455V1.545c0-.575-.455-1.272-1.273-1.272h-6.121c.788 0 1.273.636 1.273 1.272v36.909c0 .576.454 1.273 1.272 1.273h6.152a1.267 1.267 0 0 1-1.303-1.272M46.97 21.788v-4.06a.782.782 0 0 0-.788-.789h-13c-.273 0-.788.243-.788.788v4.576c0 .485.394.788.788.788h13.636c.182-.364.152-.849.152-1.303" id="Shape" fill="#298FC2"/></g></g></g></g></g></g></svg>